M48
INCH,LZ
T01C0.030
T02C0.100
%
T01
X+05325Y+05
X+05425
X+05525
X+05225
X+05125
X+04825
X+04925
X+05025
X+04725
X+04625
X+04025
X+04125
X+04225
X+03825Y+044
X+03925
X+04025
X+04125
X+04225
X+03925Y+05
X+03825
X+03525
X+03625
X+03725
X+03425
X+03325
X+03025
X+03125
X+03225
X+02925
X+02825
X+03525Y+044
X+03625
X+03725
X+03425
X+03325
X+03025
X+03125
X+03225
X+02925
X+02825
X+04925
Y+047
X+04825Y+044
Y+047
T02
X+05825Y+05125
X+06325Y+04925
X+05825
X+06325Y+044
X+05825Y+046
Y+044
T00
M30
